<?xml version="1.0" encoding="utf-8"?>
<!-- Generator: Adobe Illustrator 16.0.0, SVG Export Plug-In . SVG Version: 6.00 Build 0)  -->
<!DOCTYPE svg PUBLIC "-//W3C//DTD SVG 1.1//EN" "http://www.w3.org/Graphics/SVG/1.1/DTD/svg11.dtd">
<svg version="1.1" id="Layer_1" xmlns="http://www.w3.org/2000/svg" xmlns:xlink="http://www.w3.org/1999/xlink" x="0px" y="0px"
	 width="119px" height="125px" viewBox="0 0 119 125" enable-background="new 0 0 119 125" xml:space="preserve">
<rect fill="#E9A223" width="119" height="125"/>
<rect x="4" y="4" fill="#EADAC9" width="110.984" height="117.031"/>
<path fill="#E9A223" d="M96.914,42.23H80.82v-0.083h-7.813v29.141L55.53,42.23l-0.059,0.035v-0.119h-1.42h-5.023v4.395v34.535
	h5.023V50.001l18.705,31.075l0,0l0,0h8.063V64.751c3.174,0,13.456,0,14.791,0c1.581,0,7.349-2.512,7.349-12.093
	C102.96,43.077,96.914,42.23,96.914,42.23z M93.937,59.077H80.82V47.169h12.744c0,0,3.442,0.558,3.442,5.86
	C97.007,58.333,93.937,59.077,93.937,59.077z"/>
<rect x="9.937" y="10.891" fill="#E9A223" width="13.954" height="98.977"/>
<path fill="#E9A223" d="M112.007,40.844h-13c0,0-2.581-19.721-24.512-19.721c-20.651,0-31.814,14.698-31.814,40.186
	c0,25.489,12.279,38.883,30.326,38.883c18.046,0,26.977-17.859,26.977-26.79h13.023c0,0-1.675,39.813-40.559,39.813
	c-38.883,0-43.721-35.907-43.721-51.721c0-15.814,4.465-53.395,45.581-53.395C74.309,8.1,112.007,8.1,112.007,40.844z"/>
</svg>
